<mxfile host="app.diagrams.net" modified="2024-05-26T04:17:19.150Z" agent="Mozilla/5.0 (Windows NT 10.0; Win64; x64) AppleWebKit/537.36 (KHTML, like Gecko) Chrome/125.0.0.0 Safari/537.36" etag="MgdN6eSptWM6P9ePeytB" version="24.4.8" type="device">
  <diagram name="PÃ¡gina-1" id="6fO1MrSeVzl0_MQcSBBJ">
    <mxGraphModel dx="1194" dy="800" grid="1" gridSize="10" guides="1" tooltips="1" connect="1" arrows="1" fold="1" page="1" pageScale="1" pageWidth="827" pageHeight="1169" math="0" shadow="0">
      <root>
        <mxCell id="0" />
        <mxCell id="1" parent="0" />
        <mxCell id="ITKJDYhqSelDBUK1UT6l-18" value="" style="rounded=0;whiteSpace=wrap;html=1;" parent="1" vertex="1">
          <mxGeometry x="40" y="440" width="760" height="160" as="geometry" />
        </mxCell>
        <mxCell id="ITKJDYhqSelDBUK1UT6l-1" value="+" style="rounded=0;whiteSpace=wrap;html=1;" parent="1" vertex="1">
          <mxGeometry x="40" y="820" width="760" height="280" as="geometry" />
        </mxCell>
        <mxCell id="ITKJDYhqSelDBUK1UT6l-2" value="" style="rounded=0;whiteSpace=wrap;html=1;" parent="1" vertex="1">
          <mxGeometry x="39" y="40" width="761" height="120" as="geometry" />
        </mxCell>
        <mxCell id="ITKJDYhqSelDBUK1UT6l-3" value="" style="rounded=0;whiteSpace=wrap;html=1;" parent="1" vertex="1">
          <mxGeometry x="60" y="60" width="80" height="80" as="geometry" />
        </mxCell>
        <mxCell id="ITKJDYhqSelDBUK1UT6l-4" value="" style="rounded=0;whiteSpace=wrap;html=1;" parent="1" vertex="1">
          <mxGeometry x="230" y="85" width="110" height="30" as="geometry" />
        </mxCell>
        <mxCell id="ITKJDYhqSelDBUK1UT6l-5" value="" style="rounded=0;whiteSpace=wrap;html=1;" parent="1" vertex="1">
          <mxGeometry x="360" y="85" width="110" height="30" as="geometry" />
        </mxCell>
        <mxCell id="ITKJDYhqSelDBUK1UT6l-6" value="" style="rounded=0;whiteSpace=wrap;html=1;" parent="1" vertex="1">
          <mxGeometry x="490" y="85" width="110" height="30" as="geometry" />
        </mxCell>
        <mxCell id="ITKJDYhqSelDBUK1UT6l-7" value="" style="rounded=0;whiteSpace=wrap;html=1;" parent="1" vertex="1">
          <mxGeometry x="620" y="85" width="110" height="30" as="geometry" />
        </mxCell>
        <mxCell id="ITKJDYhqSelDBUK1UT6l-8" value="" style="rounded=0;whiteSpace=wrap;html=1;" parent="1" vertex="1">
          <mxGeometry x="39" y="160" width="761" height="250" as="geometry" />
        </mxCell>
        <mxCell id="ITKJDYhqSelDBUK1UT6l-9" value="" style="rounded=0;whiteSpace=wrap;html=1;" parent="1" vertex="1">
          <mxGeometry x="170" y="245" width="480" height="120" as="geometry" />
        </mxCell>
        <mxCell id="ITKJDYhqSelDBUK1UT6l-10" value="" style="rounded=0;whiteSpace=wrap;html=1;" parent="1" vertex="1">
          <mxGeometry x="560" y="270" width="70" height="65" as="geometry" />
        </mxCell>
        <mxCell id="ITKJDYhqSelDBUK1UT6l-11" value="" style="rounded=0;whiteSpace=wrap;html=1;" parent="1" vertex="1">
          <mxGeometry x="340" y="260" width="100" height="20" as="geometry" />
        </mxCell>
        <mxCell id="ITKJDYhqSelDBUK1UT6l-14" value="" style="whiteSpace=wrap;html=1;aspect=fixed;" parent="1" vertex="1">
          <mxGeometry x="100" y="470" width="120" height="120" as="geometry" />
        </mxCell>
        <mxCell id="ITKJDYhqSelDBUK1UT6l-15" value="" style="whiteSpace=wrap;html=1;aspect=fixed;" parent="1" vertex="1">
          <mxGeometry x="359" y="470" width="110" height="110" as="geometry" />
        </mxCell>
        <mxCell id="ITKJDYhqSelDBUK1UT6l-16" value="" style="whiteSpace=wrap;html=1;aspect=fixed;" parent="1" vertex="1">
          <mxGeometry x="610" y="470" width="110" height="110" as="geometry" />
        </mxCell>
        <mxCell id="ITKJDYhqSelDBUK1UT6l-19" value="footer" style="rounded=0;whiteSpace=wrap;html=1;" parent="1" vertex="1">
          <mxGeometry x="46.25" y="1190" width="747.5" height="49" as="geometry" />
        </mxCell>
        <mxCell id="ITKJDYhqSelDBUK1UT6l-20" value="+" style="rounded=0;whiteSpace=wrap;html=1;" parent="1" vertex="1">
          <mxGeometry x="39" y="640" width="760" height="170" as="geometry" />
        </mxCell>
        <mxCell id="ITKJDYhqSelDBUK1UT6l-23" value="" style="rounded=0;whiteSpace=wrap;html=1;" parent="1" vertex="1">
          <mxGeometry x="74" y="660" width="340" height="130" as="geometry" />
        </mxCell>
        <mxCell id="ITKJDYhqSelDBUK1UT6l-25" value="&lt;ul&gt;&lt;li&gt;Address&lt;/li&gt;&lt;li&gt;phone number&lt;/li&gt;&lt;li&gt;email&lt;/li&gt;&lt;/ul&gt;" style="text;strokeColor=none;fillColor=none;html=1;whiteSpace=wrap;verticalAlign=middle;overflow=hidden;" parent="1" vertex="1">
          <mxGeometry x="130" y="690" width="260" height="70" as="geometry" />
        </mxCell>
        <mxCell id="ITKJDYhqSelDBUK1UT6l-26" value="maps" style="rounded=0;whiteSpace=wrap;html=1;" parent="1" vertex="1">
          <mxGeometry x="460" y="660" width="300" height="131.87" as="geometry" />
        </mxCell>
        <mxCell id="ITKJDYhqSelDBUK1UT6l-28" value="label name" style="rounded=0;whiteSpace=wrap;html=1;" parent="1" vertex="1">
          <mxGeometry x="75" y="850" width="300" height="20" as="geometry" />
        </mxCell>
        <mxCell id="ITKJDYhqSelDBUK1UT6l-29" value="label address" style="rounded=0;whiteSpace=wrap;html=1;" parent="1" vertex="1">
          <mxGeometry x="75" y="880" width="300" height="20" as="geometry" />
        </mxCell>
        <mxCell id="ITKJDYhqSelDBUK1UT6l-30" value="&lt;span style=&quot;font-family: Montserrat, Helvetica, sans-serif; font-size: 16px; text-align: left;&quot;&gt;the purpose of the message&lt;/span&gt;" style="rounded=0;whiteSpace=wrap;html=1;" parent="1" vertex="1">
          <mxGeometry x="75" y="900" width="680" height="40" as="geometry" />
        </mxCell>
        <mxCell id="ITKJDYhqSelDBUK1UT6l-32" value="Message" style="rounded=0;whiteSpace=wrap;html=1;" parent="1" vertex="1">
          <mxGeometry x="70" y="950" width="687.5" height="90" as="geometry" />
        </mxCell>
        <mxCell id="ITKJDYhqSelDBUK1UT6l-34" value="Submitt" style="rounded=0;whiteSpace=wrap;html=1;" parent="1" vertex="1">
          <mxGeometry x="355" y="1110" width="150" height="25" as="geometry" />
        </mxCell>
        <mxCell id="9VGbtOqMjKV930YoyxTK-1" value="" style="rounded=0;whiteSpace=wrap;html=1;" parent="1" vertex="1">
          <mxGeometry x="355" y="420" width="120" height="10" as="geometry" />
        </mxCell>
        <mxCell id="TT7X8hRBQcMbrigyhFJC-1" value="" style="shape=stencil(fZbdcgIhDIWfZm8zQAg/17Z9j85U606tdqz9e/tmZ0c0uJ47xP0I5JwEBl59bp8/1kNwn6fj4W39M76ctgM/DCGM++36OJ50NPDjwKvN4bh+PR6+9i/z74/n6ctp9H74nlb4nbmSKZeJCu5vngmZ6jzzNAO7cX8FVKEsBuBKrgKg9oAE8gkCbLeUhEoEQKSUDZDLeWYRKIl8MEDRmHwfyBrBG6Amyu4+kDxxMoB3jhwgYu7TVAsVkFcWCs4CTBEoF4RctKeOxHIf8IXYpikHikAIf+MNUW94AGSSaoAoFIE3AlOyeWU+p2E5S9yfQZcQILVuQOwZdJNoS9Ls3wA5u2XZTIHECqeJ9kDpSaauRiNVcAY1QhdBzeLBli5WazpkSsBLV25uRaqWRyFawTQzRRIQYirJzq5atkBqLfouwqUxLBepthWb10vrWZY6UOAeyKCCtDV625mm9gmUC4Wc3VLJMMIE1BsA2FW9JraVlQB7n3c9oMKhCLEvIM1zBPZ25/umNQ1tVEC2G+fFCC8g398O2hNQuQlVu752DBfA+q0ptnqO5JFmeuIuo9DY7KjY71UxdJV4EntifPWorW++R/dC4t7V3DlIB5cHx2bc7eb3yvX//QNFp+bHDT/+Aw==);lineShape=1;strokeColor=default;" parent="1" vertex="1">
          <mxGeometry x="942.8679608424759" y="641.8753124585191" width="4.672539772115215" height="4.665236216357698" as="geometry" />
        </mxCell>
        <mxCell id="x0r2gM9LMUjIxs-ARzh9-1" style="edgeStyle=none;curved=1;rounded=0;orthogonalLoop=1;jettySize=auto;html=1;exitX=0.5;exitY=0;exitDx=0;exitDy=0;entryX=0.183;entryY=0.1;entryDx=0;entryDy=0;entryPerimeter=0;fontSize=12;startSize=8;endSize=8;" edge="1" parent="1" source="9VGbtOqMjKV930YoyxTK-1" target="9VGbtOqMjKV930YoyxTK-1">
          <mxGeometry relative="1" as="geometry" />
        </mxCell>
        <mxCell id="x0r2gM9LMUjIxs-ARzh9-2" value="" style="rounded=0;whiteSpace=wrap;html=1;" vertex="1" parent="1">
          <mxGeometry x="355" y="620" width="120" height="10" as="geometry" />
        </mxCell>
        <mxCell id="x0r2gM9LMUjIxs-ARzh9-5" value="" style="rounded=0;whiteSpace=wrap;html=1;" vertex="1" parent="1">
          <mxGeometry x="360" y="820" width="120" height="20" as="geometry" />
        </mxCell>
        <mxCell id="x0r2gM9LMUjIxs-ARzh9-7" value="" style="rounded=0;whiteSpace=wrap;html=1;" vertex="1" parent="1">
          <mxGeometry x="70" y="1050" width="120" height="20" as="geometry" />
        </mxCell>
        <mxCell id="x0r2gM9LMUjIxs-ARzh9-8" value="" style="rounded=0;whiteSpace=wrap;html=1;" vertex="1" parent="1">
          <mxGeometry x="46.25" y="1150" width="210" height="20" as="geometry" />
        </mxCell>
      </root>
    </mxGraphModel>
  </diagram>
</mxfile>
